<?xml version="1.0" encoding="UTF-8" standalone="no"?>
<!-- Created with Inkscape (http://www.inkscape.org/) -->

<svg
   width="640"
   height="150"
   viewBox="0 0 640 150"
   version="1.1"
   id="svg5"
   inkscape:version="1.2.2 (732a01da63, 2022-12-09)"
   sodipodi:docname="cosine64v.svg"
   xmlns:inkscape="http://www.inkscape.org/namespaces/inkscape"
   xmlns:sodipodi="http://sodipodi.sourceforge.net/DTD/sodipodi-0.dtd"
   xmlns="http://www.w3.org/2000/svg"
   xmlns:svg="http://www.w3.org/2000/svg">
  <sodipodi:namedview
     id="namedview7"
     pagecolor="#ffffff"
     bordercolor="#000000"
     borderopacity="0.25"
     inkscape:showpageshadow="2"
     inkscape:pageopacity="0.0"
     inkscape:pagecheckerboard="true"
     inkscape:deskcolor="#d1d1d1"
     inkscape:document-units="mm"
     showgrid="false"
     inkscape:lockguides="false"
     inkscape:zoom="1.4912879"
     inkscape:cx="529.0729"
     inkscape:cy="156.91135"
     inkscape:window-width="1920"
     inkscape:window-height="1017"
     inkscape:window-x="-8"
     inkscape:window-y="-8"
     inkscape:window-maximized="1"
     inkscape:current-layer="layer1">
    <sodipodi:guide
       position="0,150"
       orientation="0,837"
       id="guide2090"
       inkscape:locked="false" />
    <sodipodi:guide
       position="837,150"
       orientation="172,0"
       id="guide2092"
       inkscape:locked="false" />
    <sodipodi:guide
       position="829.77733,-17.852099"
       orientation="0,-837"
       id="guide2094"
       inkscape:locked="false" />
    <sodipodi:guide
       position="0,-22"
       orientation="-172,0"
       id="guide2096"
       inkscape:locked="false" />
  </sodipodi:namedview>
  <defs
     id="defs2">
    <rect
       x="136.79451"
       y="56.327152"
       width="164.95808"
       height="22.128525"
       id="rect3299" />
    <rect
       x="29.5047"
       y="22.128525"
       width="549.86029"
       height="138.13564"
       id="rect2515" />
  </defs>
  <g
     inkscape:label="Layer 1"
     inkscape:groupmode="layer"
     id="layer1">
    <text
       xml:space="preserve"
       id="text2513"
       style="font-style:normal;font-variant:normal;font-weight:normal;font-stretch:normal;font-size:192px;font-family:Consolas;-inkscape-font-specification:Consolas;white-space:pre;shape-inside:url(#rect2515);fill:#ffffff"
       transform="translate(91.196342,10.728981)"><tspan
         x="29.503906"
         y="326.85742"
         id="tspan4325"><tspan
           dx="0 70.375 70.375 70.375 70.375 70.375 70.375 70.375"
           style="font-size:128px"
           id="tspan4323">cosine64</tspan></tspan></text>
    <text
       xml:space="preserve"
       id="text3297"
       style="font-style:normal;font-variant:normal;font-weight:normal;font-stretch:normal;font-family:Consolas;-inkscape-font-specification:Consolas;white-space:pre;shape-inside:url(#rect3299);fill:#ffffff" />
    <path
       id="text4093"
       style="font-style:normal;font-variant:normal;font-weight:normal;font-stretch:normal;font-size:128px;font-family:Consolas;-inkscape-font-specification:Consolas;fill:#ffffff"
       d="m 241.62108,26.083768 c -1.20833,0 -2.33334,0.229167 -3.375,0.6875 -1.04167,0.416667 -1.95834,1.020835 -2.75,1.8125 -0.75,0.791666 -1.35417,1.708335 -1.8125,2.75 -0.41667,0.999999 -0.625,2.104168 -0.625,3.3125 0,1.166666 0.20833,2.270835 0.625,3.3125 0.45833,1.041666 1.0625,1.958335 1.8125,2.75 0.79166,0.791666 1.70833,1.416667 2.75,1.875 0.71374,0.285497 1.46973,0.464811 2.26172,0.554688 -0.50206,-0.636321 -0.92483,-1.340693 -1.26563,-2.115234 -0.41666,-1.041666 -0.625,-2.145835 -0.625,-3.3125 0,-1.208333 0.20834,-2.312501 0.625,-3.3125 0.45833,-1.041666 1.0625,-1.958335 1.8125,-2.75 0.79167,-0.791666 1.70834,-1.395834 2.75,-1.8125 1.04167,-0.458333 2.16667,-0.6875 3.375,-0.6875 0.36728,0 0.72429,0.02797 1.07617,0.07031 -0.17854,-0.219742 -0.369,-0.431504 -0.57226,-0.634766 -0.75,-0.791665 -1.64584,-1.395833 -2.6875,-1.8125 -1.04167,-0.458332 -2.16667,-0.6875 -3.375,-0.6875 z m 6.63476,3.134766 c 0.51685,0.636112 0.93055,1.341018 1.24024,2.115234 0.45833,0.999999 0.6875,2.104168 0.6875,3.3125 0,1.166666 -0.22917,2.270835 -0.6875,3.3125 -0.41667,1.041666 -1.02084,1.958335 -1.8125,2.75 -0.75,0.791666 -1.64584,1.416668 -2.6875,1.875 -1.04167,0.416667 -2.16667,0.625 -3.375,0.625 -0.38039,0 -0.74941,-0.02902 -1.11328,-0.07031 0.17315,0.219454 0.35454,0.431752 0.54687,0.634766 0.79167,0.791665 1.70834,1.416667 2.75,1.875 1.04167,0.416666 2.16667,0.625 3.375,0.625 1.20833,0 2.33334,-0.208334 3.375,-0.625 1.04167,-0.458333 1.9375,-1.083335 2.6875,-1.875 0.79167,-0.791666 1.39584,-1.708335 1.8125,-2.75 0.45833,-1.041666 0.6875,-2.145835 0.6875,-3.3125 0,-1.208333 -0.22917,-2.312501 -0.6875,-3.3125 -0.41666,-1.041666 -1.02083,-1.958335 -1.8125,-2.75 -0.75,-0.791666 -1.64583,-1.395834 -2.6875,-1.8125 -0.72504,-0.31902 -1.49304,-0.52022 -2.29883,-0.617188 z M 101.49608,51.271268 c -4.708327,0 -8.916667,0.812502 -12.624997,2.4375 -3.70833,1.583332 -6.85417,3.833337 -9.4375,6.75 -2.58333,2.874998 -4.5625,6.333338 -5.9375,10.375 -1.375,3.999996 -2.0625,8.437505 -2.0625,13.312496 0,5.208327 0.64583,9.812507 1.9375,13.812497 1.33333,3.999999 3.22917,7.354169 5.6875,10.062499 2.5,2.70834 5.52084,4.77084 9.0625,6.1875 0.006,0.002 0.0118,0.004 0.0176,0.006 -1.26839,-0.92612 -2.44591,-1.96369 -3.52149,-3.1289 -2.45833,-2.70833 -4.35417,-6.06251 -5.6875,-10.0625 -1.29166,-3.999999 -1.9375,-8.604169 -1.9375,-13.812499 0,-4.874995 0.6875,-9.312504 2.0625,-13.312499 1.375,-4.041663 3.35417,-7.500003 5.9375,-10.375 2.58333,-2.916664 5.72917,-5.166669 9.4375,-6.75 3.708333,-1.624999 7.916667,-2.4375 12.624997,-2.4375 4.5,0 8.52084,0.708334 12.0625,2.125 0.0743,0.02851 0.14493,0.06076 0.21875,0.08984 -1.72923,-1.284134 -3.65255,-2.338971 -5.77734,-3.154297 -3.54167,-1.416665 -7.56251,-2.125 -12.0625,-2.125 z m 17.83984,5.279297 c 1.18702,0.881484 2.28453,1.868316 3.28516,2.970703 2.5,2.666664 4.39583,6.000004 5.6875,10 1.33333,3.999996 2,8.583339 2,13.749996 0,4.874997 -0.6875,9.354177 -2.0625,13.437497 -1.375,4.041669 -3.35417,7.520839 -5.9375,10.437499 -2.58333,2.875 -5.72917,5.12501 -9.4375,6.75 -3.70833,1.58334 -7.91667,2.375 -12.625,2.375 -4.492797,0 -8.528357,-0.68603 -12.107417,-2.05664 1.67976,1.2265 3.52308,2.25143 5.54101,3.0586 3.58333,1.375 7.625007,2.0625 12.124997,2.0625 4.70833,0 8.91667,-0.79167 12.625,-2.375 3.70833,-1.625 6.85417,-3.87501 9.4375,-6.75 2.58333,-2.91667 4.5625,-6.39584 5.9375,-10.437499 1.375,-4.08333 2.0625,-8.56251 2.0625,-13.4375 0,-5.166661 -0.66667,-9.750004 -2,-13.749999 -1.29166,-3.999996 -3.1875,-7.333336 -5.6875,-10 -2.40735,-2.652169 -5.35757,-4.661596 -8.84375,-6.035157 z m 42.66617,-2.95425 c -4.6746,1.774305 -8.3557,3.817741 -11.04331,6.130302 -2.70239,2.273607 -4.65114,4.595415 -5.84622,6.965412 -1.19509,2.369996 -1.81255,4.676735 -1.85235,6.920197 -8.5e-4,2.228679 0.30923,4.161075 0.93023,5.797182 0.9463,2.493115 2.23438,4.477686 3.86423,5.953703 1.62985,1.47603 3.52159,2.58525 5.6752,3.32766 2.15362,0.74242 4.53286,1.19865 7.13772,1.36868 0.25849,0.0114 0.5256,0.0127 0.78714,0.0209 -0.56043,-0.14864 -1.10775,-0.31337 -1.64057,-0.49704 -2.15361,-0.74242 -4.04535,-1.85164 -5.6752,-3.32767 -1.62986,-1.476017 -2.91793,-3.460587 -3.86423,-5.953702 -0.62101,-1.636108 -0.93108,-3.568507 -0.93023,-5.797182 0.0398,-2.243464 0.65725,-4.550202 1.85234,-6.920198 1.19509,-2.369996 3.14384,-4.691806 5.84623,-6.965411 2.6876,-2.312562 6.36872,-4.356001 11.0433,-6.130302 2.29834,-0.872365 4.90165,-1.704499 7.8099,-2.496396 1.20442,-0.345846 2.44998,-0.658849 3.72052,-0.952572 l -0.752,-1.981225 c -3.27506,0.530019 -6.35933,1.210453 -9.2528,2.041306 -2.90826,0.791899 -5.51157,1.624031 -7.8099,2.496396 z m 17.8147,-2.556477 2.68571,7.075804 c -3.49002,0.433344 -6.74291,1.021794 -9.75864,1.765352 -2.99158,0.689821 -5.53915,1.433947 -7.64271,2.232384 -2.53207,0.96108 -4.60067,1.969079 -6.20578,3.023992 -1.56616,1.040127 -2.76155,2.117792 -3.58613,3.232983 -0.80043,1.061452 -1.25694,2.148355 -1.36954,3.260703 -0.12738,1.073395 0.009,2.135985 0.40775,3.187768 0.39922,1.051783 0.95625,1.932254 1.67109,2.641402 0.75379,0.694365 1.83131,1.243574 3.23255,1.647622 1.39732,0.343405 3.21943,0.547982 5.45452,0.616228 -1.00054,-0.367491 -1.80687,-0.822435 -2.40278,-1.371359 -0.71484,-0.709153 -1.27187,-1.58962 -1.67109,-2.641402 -0.39922,-1.051783 -0.53514,-2.114375 -0.40775,-3.187768 0.1126,-1.11235 0.56911,-2.199252 1.36953,-3.260704 0.8246,-1.115194 2.01998,-2.192856 3.58613,-3.232982 1.60512,-1.054914 3.67371,-2.062912 6.20578,-3.023993 2.10357,-0.798437 4.65115,-1.542567 7.64271,-2.232383 3.01574,-0.74356 6.26863,-1.332013 9.75865,-1.765353 l -3.43772,-9.057029 c -1.9118,0.309394 -3.75051,0.676828 -5.53228,1.088735 z m -15.11118,28.684238 c 0.26509,0.09737 0.53628,0.191633 0.82977,0.276262 1.42541,0.350309 3.28672,0.557452 5.58393,0.621426 2.28242,0.02502 5.19822,-0.101232 8.74738,-0.378751 3.36159,-0.264565 6.30011,-0.314488 8.86455,-0.174628 -1.54003,-0.417185 -3.25191,-0.701508 -5.16414,-0.830904 -2.80504,-0.22775 -6.13328,-0.190073 -9.9847,0.11304 -3.54917,0.277524 -6.46496,0.403772 -8.74738,0.378753 -0.0453,-0.0013 -0.0845,-0.0038 -0.12941,-0.0052 z m 24.02563,0.344309 c 0.70713,0.191555 1.38928,0.40241 2.01794,0.654638 1.99779,0.801568 3.63362,1.941071 4.90748,3.418511 1.31281,1.462657 2.38322,3.284727 3.21123,5.466197 0.78365,2.06462 1.13539,4.04806 1.0552,5.9503 -0.0802,1.90226 -0.48011,3.72533 -1.19978,5.469199 -0.73446,1.70493 -1.73023,3.30848 -2.9873,4.81066 -1.25708,1.50219 -2.69017,2.89291 -4.29926,4.17216 -1.57015,1.26448 -3.25786,2.39532 -5.06315,3.3925 -1.8053,0.9972 -3.62338,1.84326 -5.45426,2.5382 -3.97341,1.50815 -7.70172,2.72273 -11.18491,3.64372 -1.59508,0.41968 -3.1956,0.7831 -4.8005,1.10137 l 0.68338,1.80044 c 3.49003,-0.43334 6.95717,-1.10311 10.40141,-2.00931 3.48319,-0.92099 7.21151,-2.13557 11.1849,-3.64373 1.83088,-0.69493 3.64898,-1.54101 5.45427,-2.53819 1.80529,-0.9972 3.49301,-2.12803 5.06315,-3.3925 1.60909,-1.27926 3.04218,-2.66999 4.29926,-4.17217 1.25707,-1.50218 2.25285,-3.10574 2.9873,-4.81066 0.71967,-1.74387 1.1196,-3.566939 1.19978,-5.469189 0.0802,-1.90225 -0.27155,-3.88569 -1.0552,-5.9503 -0.82801,-2.18148 -1.89843,-4.00355 -3.21124,-5.466207 -1.27385,-1.47744 -2.90968,-2.61695 -4.90747,-3.418504 -1.99779,-0.801559 -4.39182,-1.296749 -7.18208,-1.485543 -0.35675,-0.02897 -0.74648,-0.04122 -1.12015,-0.06159 z m -23.79731,40.617455 -2.86523,-7.54875 c 3.79768,-0.32728 7.48719,-0.88091 11.06848,-1.66085 3.58129,-0.77997 7.04701,-1.80573 10.39713,-3.07732 4.86937,-1.84823 8.22135,-3.87816 10.05593,-6.08978 1.83457,-2.21162 2.28611,-4.544519 1.3546,-6.998669 -0.39922,-1.05179 -0.94885,-1.91278 -1.64891,-2.58297 -0.67588,-0.72394 -1.64123,-1.27116 -2.89603,-1.64165 -1.26959,-0.40945 -3.09195,-0.63138 -5.46706,-0.66579 -0.0526,-0.001 -0.11785,10e-4 -0.17122,2.2e-4 0.94,0.35567 1.69724,0.82265 2.25002,1.41472 0.70005,0.6702 1.2497,1.5312 1.64891,2.58297 0.93151,2.45416 0.47998,4.78706 -1.3546,6.998679 -1.83458,2.21162 -5.18656,4.24155 -10.05593,6.08978 -3.35012,1.27158 -6.81584,2.29736 -10.39713,3.07731 -3.5813,0.77996 -7.2708,1.33358 -11.06848,1.66086 l 3.54861,9.34919 c 1.87375,-0.23265 3.74036,-0.53901 5.60091,-0.90795 z m 19.82769,-30.265559 c -0.20935,-0.0792 -0.41746,-0.15944 -0.64601,-0.22693 -1.26959,-0.40945 -3.09195,-0.63138 -5.46706,-0.66578 -2.33616,-0.0492 -5.47631,0.0731 -9.42042,0.36681 -2.65513,0.20409 -5.17488,0.26042 -7.5734,0.18593 1.70483,0.45216 3.53674,0.74367 5.49715,0.87163 2.62904,0.11629 5.41588,0.0613 8.36053,-0.16507 3.8554,-0.28712 6.93025,-0.40712 9.24921,-0.36659 z M 317.62108,51.271268 c -1.83333,0 -3.60417,0.187501 -5.3125,0.5625 -1.70833,0.333333 -3.39584,0.937501 -5.0625,1.8125 -1.625,0.875 -3.29167,2.041669 -5,3.5 -0.0375,0.03108 -0.0758,0.06817 -0.11328,0.09961 l 0.35937,8.339844 c 1.83333,-2.166665 3.60417,-3.958335 5.3125,-5.375 1.70833,-1.458332 3.375,-2.625001 5,-3.5 1.66667,-0.875 3.35417,-1.479168 5.0625,-1.8125 1.70833,-0.375 3.47917,-0.5625 5.3125,-0.5625 2.77005,0 5.2461,0.353394 7.4336,1.058593 -3.1977,-2.745861 -7.52617,-4.123047 -12.99219,-4.123047 z m 12.99219,4.123047 c 0.58051,0.498486 1.12705,1.037972 1.63281,1.626953 3.33333,3.791663 5,9.520841 5,17.1875 v 40.937492 h -5.31641 v 3.06446 h 10.875 V 77.273222 c 0,-7.666659 -1.66667,-13.395838 -5,-17.1875 -1.87983,-2.189171 -4.27879,-3.752446 -7.1914,-4.691407 z m 1.3164,59.751945 V 78.148222 c 0,-4.916662 -0.91667,-8.541669 -2.75,-10.875 -1.40909,-1.825417 -3.35281,-2.942828 -5.82031,-3.365235 0.086,0.101949 0.17932,0.194034 0.26172,0.300781 1.83333,2.333331 2.75,5.958339 2.75,10.875 v 40.062492 z m -8.57031,-51.238273 c -1.82784,-2.166301 -4.46372,-3.261719 -7.92578,-3.261719 -1.33333,0 -2.64584,0.208334 -3.9375,0.625 -1.25,0.375 -2.5625,1.062501 -3.9375,2.0625 -1.375,0.958333 -2.875,2.270835 -4.5,3.9375 -1.58333,1.666665 -3.375,3.750003 -5.375,6.25 v 41.624992 h -5.31641 v 3.06446 h 10.875 V 76.585722 c 2,-2.499998 3.79167,-4.583335 5.375,-6.25 1.625,-1.666665 3.125,-2.979168 4.5,-3.9375 1.375,-1 2.6875,-1.687501 3.9375,-2.0625 1.29167,-0.416667 2.60417,-0.625 3.9375,-0.625 0.83884,0 1.62429,0.07009 2.36719,0.197265 z M 292.36717,115.14626 V 55.460722 h 4.26172 l -0.13281,-3.064454 h -9.6875 v 62.749992 z m 4.26172,-59.685538 0.30469,7.060546 c 1.79311,-2.119132 3.52568,-3.873711 5.19922,-5.27539 l -0.0781,-1.785156 z m 86.36719,-4.189454 c -4.5,0 -8.52084,0.875002 -12.0625,2.625 -3.54166,1.749999 -6.54167,4.125003 -9,7.125 -2.41667,2.958331 -4.27084,6.416671 -5.5625,10.375 -1.25,3.916663 -1.875,8.083338 -1.875,12.499996 0,5.083327 0.58333,9.645837 1.75,13.687497 1.20833,3.999999 3.04167,7.395839 5.5,10.187499 2.34607,2.58069 5.30631,4.58417 8.86328,6.02735 -1.20843,-0.8878 -2.31273,-1.87174 -3.30469,-2.96289 -2.45833,-2.79167 -4.29167,-6.18751 -5.5,-10.1875 -1.16666,-4.041669 -1.75,-8.604169 -1.75,-13.687499 0,-4.416657 0.625,-8.583337 1.875,-12.499999 1.29167,-3.95833 3.14584,-7.41667 5.5625,-10.375 2.45833,-2.999997 5.45834,-5.375002 9,-7.125 3.54167,-1.749999 7.56251,-2.625 12.0625,-2.625 4.25889,0 8.0403,0.656001 11.35156,1.958984 -1.58403,-1.178376 -3.34202,-2.16929 -5.28515,-2.960938 -3.375,-1.374998 -7.25001,-2.0625 -11.625,-2.0625 z m 16.91015,5.023438 c 1.16725,0.868323 2.2426,1.835747 3.21485,2.914062 2.33333,2.499998 4.08333,5.562504 5.25,9.1875 1.20833,3.58333 1.8125,7.604172 1.8125,12.0625 0,1.541666 -0.0208,2.833336 -0.0625,3.874996 -0.0417,1.041667 -0.10417,2.020837 -0.1875,2.937497 h -44.0625 c 0,6.41666 1.79167,11.35417 5.375,14.812499 1.74185,1.66084 3.86146,2.91408 6.35156,3.76758 -0.27185,-0.22642 -0.53725,-0.45929 -0.79297,-0.70312 -3.58333,-3.45833 -5.375,-8.395839 -5.375,-14.812499 h 44.0625 c 0.0833,-0.91667 0.14584,-1.89584 0.1875,-2.9375 0.0417,-1.04167 0.0625,-2.333337 0.0625,-3.874997 0,-4.458331 -0.60417,-8.479173 -1.8125,-12.062502 -1.16666,-3.624997 -2.91667,-6.687503 -5.25,-9.1875 -2.29166,-2.541665 -5.125,-4.500002 -8.5,-5.875 -0.0896,-0.03649 -0.18316,-0.06799 -0.27344,-0.103516 z m -22.30859,49.556634 c 3.53747,2.94641 8.43875,4.42188 14.70703,4.42188 1.83333,0 3.66667,-0.0625 5.5,-0.1875 1.83333,-0.16667 3.60417,-0.375 5.3125,-0.625 1.28261,-0.1877 2.50275,-0.39038 3.69141,-0.60156 v -4.3379 c -1.33333,0.375 -2.79167,0.72917 -4.375,1.0625 -1.54167,0.29167 -3.16667,0.5625 -4.875,0.8125 -1.70833,0.25 -3.47917,0.45834 -5.3125,0.625 -1.83333,0.125 -3.66667,0.1875 -5.5,0.1875 -3.46884,0 -6.5159,-0.45509 -9.14844,-1.35742 z m 29.21094,3.00782 v 4.5996 c -2.95833,0.83334 -6.31251,1.5 -10.0625,2 -3.70833,0.54167 -7.56251,0.8125 -11.5625,0.8125 -5.375,0 -10.00001,-0.72916 -13.875,-2.1875 -0.23858,-0.0898 -0.46585,-0.19047 -0.69922,-0.28515 1.83714,1.34969 3.92035,2.46992 6.25781,3.34961 3.875,1.45833 8.50001,2.1875 13.875,2.1875 4,0 7.85417,-0.27084 11.5625,-0.8125 3.75,-0.5 7.10417,-1.16667 10.0625,-2 v -8.9375 c -1.33333,0.375 -2.79167,0.72916 -4.375,1.0625 -0.38419,0.0727 -0.78905,0.14084 -1.18359,0.21094 z M 36.808583,51.521268 c -4.666664,0 -8.937506,0.791669 -12.812502,2.375 -3.874996,1.541665 -7.208336,3.750003 -10,6.625 -2.791664,2.874998 -4.958335,6.333338 -6.5000003,10.375 -1.541665,4.041663 -2.3125,8.541672 -2.3125,13.499996 0,10.333327 2.666672,18.187506 8.0000003,23.562496 2.385092,2.3851 5.220638,4.23772 8.5,5.56446 -1.044448,-0.75813 -2.028088,-1.58668 -2.941406,-2.5 -5.333328,-5.375 -8,-13.229179 -8,-23.562499 0,-4.958327 0.770835,-9.458337 2.3125,-13.499999 1.541665,-4.041663 3.708336,-7.500003 6.5,-10.375 2.791664,-2.874998 6.125004,-5.083335 10,-6.625 3.874998,-1.583332 8.145838,-2.375 12.812498,-2.375 3.25,0 6.29167,0.229167 9.125,0.6875 0.86861,0.14051 1.72129,0.318337 2.56641,0.513671 v -1.328125 c -2.58333,-1.041665 -5.29167,-1.791667 -8.125,-2.25 -2.83333,-0.458332 -5.87501,-0.6875 -9.125,-0.6875 z m 17.25,4.265625 v 9.046875 c -2.70833,-1.416665 -5.47917,-2.4375 -8.3125,-3.0625 -2.79167,-0.666666 -5.6875,-1 -8.6875,-1 -2.79167,0 -5.437504,0.541668 -7.937502,1.625 -2.458331,1.041666 -4.625002,2.562502 -6.5,4.5625 -1.874998,1.999998 -3.354168,4.437503 -4.4375,7.3125 -1.083332,2.874997 -1.625,6.125004 -1.625,9.749996 0,7.583327 1.833337,13.270837 5.5,17.062496 1.931931,1.95364 4.2522,3.39423 6.953125,4.33008 -0.484875,-0.3954 -0.950313,-0.81641 -1.394531,-1.26562 -3.666663,-3.79167 -5.5,-9.479179 -5.5,-17.062499 0,-3.624997 0.541668,-6.875002 1.625,-9.749999 1.083332,-2.874998 2.562502,-5.312502 4.4375,-7.3125 1.874998,-1.999999 4.041669,-3.520835 6.499998,-4.5625 2.5,-1.083333 5.14584,-1.625 7.9375,-1.625 3,0 5.89584,0.333333 8.6875,1 2.83333,0.624999 5.60417,1.645834 8.3125,3.0625 v -10.375 c -1.79136,-0.722324 -3.64702,-1.294499 -5.55859,-1.736329 z M 29.011706,105.41384 c 3.562857,2.90539 8.222427,4.35938 13.980467,4.35938 2.95833,0 5.8125,-0.33334 8.5625,-1 0.84521,-0.20184 1.6778,-0.44409 2.50391,-0.70703 v -5.35743 c -2.58333,1.33334 -5.27084,2.33334 -8.0625,3 -2.75,0.66667 -5.60417,1 -8.5625,1 -3.13365,0 -5.938391,-0.43441 -8.421877,-1.29492 z m 25.046877,2.65235 v 4.76757 c -2.83333,1.08334 -5.75,1.875 -8.75,2.375 -2.95833,0.54167 -6.02084,0.8125 -9.1875,0.8125 -5.516257,0 -10.32656,-0.83487 -14.437502,-2.49804 5.102265,3.70355 11.764472,5.5625 19.996092,5.5625 3.16667,0 6.22917,-0.27084 9.1875,-0.8125 3,-0.5 5.91667,-1.29167 8.75,-2.375 v -10.125 c -1.8012,0.92965 -3.65611,1.68741 -5.55859,2.29297 z M 219.24608,52.396268 v 9 h 5.55859 v -5.935546 h 24.00391 v -3.064454 z m 29.5625,3.064454 v 50.623038 h 5.55859 V 55.460722 Z m 5.55859,50.623038 v 3.06446 h 13.12891 v -3.06446 z m 13.12891,3.06446 v 5.99804 h -44.75391 v 3.06446 h 50.3125 v -9.0625 z m -44.75391,5.99804 v -5.99804 h 20.625 V 64.460722 h -5.55859 v 41.623038 h -20.625 v 9.0625 z m 15.06641,-50.685538 v -3.064454 h -13.00391 v 3.064454 z m 144.6875,-4.501954 c -2.375,0 -4.54167,0.458335 -6.5,1.375 -1.95833,0.916666 -3.64584,2.208335 -5.0625,3.875 -1.41667,1.666665 -2.5625,3.666669 -3.4375,6 -0.875,2.333331 -1.41667,4.895837 -1.625,7.6875 h 5.95508 c 0.28628,-1.625795 0.68512,-3.174012 1.22851,-4.623046 0.875,-2.333332 2.02084,-4.333335 3.4375,-6 1.41667,-1.666665 3.10417,-2.958335 5.0625,-3.875 1.95833,-0.916666 4.125,-1.375 6.5,-1.375 1.97032,0 3.76644,0.250231 5.39453,0.742187 -1.07952,-0.953663 -2.30423,-1.753629 -3.70312,-2.369141 -2.08333,-0.958332 -4.5,-1.4375 -7.25,-1.4375 z m 10.95312,3.806641 c 0.52819,0.466603 1.03265,0.958306 1.48438,1.505859 1.41666,1.666665 2.45833,3.666669 3.125,6 0.66666,2.291665 0.9375,4.833336 0.8125,7.625 h -27.04492 c -0.17471,0.992168 -0.31753,2.006456 -0.39649,3.064454 h 33 c 0.125,-2.791664 -0.14583,-5.333336 -0.8125,-7.625 -0.66666,-2.333332 -1.70833,-4.333336 -3.125,-6 -1.375,-1.666666 -3.10417,-2.958335 -5.1875,-3.875 -0.59066,-0.271705 -1.21122,-0.500642 -1.85547,-0.695313 z M 100.87108,60.521268 c -3.249997,0 -6.041667,0.645835 -8.374997,1.9375 -2.29167,1.249999 -4.1875,2.937502 -5.6875,5.0625 -1.45833,2.124998 -2.54167,4.60417 -3.25,7.4375 -0.66667,2.791664 -1,5.72917 -1,8.812496 0,3.874997 0.41667,7.270837 1.25,10.187497 0.875,2.91667 2.10417,5.35417 3.6875,7.312499 1.58333,1.91667 3.5,3.37501 5.75,4.375 0.54386,0.23165 1.10565,0.43373 1.68359,0.60938 -0.66932,-0.57902 -1.2951,-1.21794 -1.875,-1.91992 -1.58333,-1.95833 -2.8125,-4.395839 -3.6875,-7.312499 -0.83333,-2.91667 -1.25,-6.31251 -1.25,-10.1875 0,-3.083327 0.33334,-6.020836 1,-8.812499 0.70833,-2.833331 1.79167,-5.312503 3.25,-7.4375 1.5,-2.124998 3.39584,-3.812502 5.687503,-5.0625 2.333324,-1.291666 5.125004,-1.9375 8.374994,-1.9375 2.1511,0 4.13926,0.300792 5.96875,0.894531 -1.17693,-1.023579 -2.49751,-1.845375 -3.96484,-2.458985 -2.25,-0.999999 -4.77084,-1.5 -7.5625,-1.5 z m 11.52734,3.958985 c 0.6612,0.575041 1.27812,1.211582 1.84766,1.916015 1.58333,1.916665 2.79167,4.333337 3.625,7.25 0.875,2.874997 1.3125,6.250004 1.3125,10.124996 0,3.124997 -0.35417,6.104167 -1.0625,8.937497 -0.66667,2.79167 -1.75,5.25001 -3.25,7.374999 -1.45833,2.125 -3.35417,3.83334 -5.6875,5.125 -2.29167,1.25 -5.06251,1.875 -8.3125,1.875 -2.148464,0 -4.128347,-0.27709 -5.941407,-0.82812 1.15818,1.00192 2.44906,1.82133 3.875003,2.45508 2.249994,0.95833 4.791664,1.4375 7.624994,1.4375 3.25,0 6.02084,-0.625 8.3125,-1.875 2.33333,-1.29167 4.22917,-3 5.6875,-5.125 1.5,-2.125 2.58334,-4.583339 3.25,-7.374999 0.70833,-2.83333 1.0625,-5.81251 1.0625,-8.9375 0,-3.874997 -0.4375,-7.250002 -1.3125,-10.124999 -0.83333,-2.916664 -2.04167,-5.333336 -3.625,-7.25 -1.58333,-1.958332 -3.52083,-3.416668 -5.8125,-4.375 -0.51627,-0.229456 -1.04896,-0.428664 -1.59375,-0.605469 z"
       sodipodi:nodetypes="scccscccccscccscccsccscccscccscccsccccscccsccccccscccscccscccscccsccscccscccscscsssccssscscsccccscccscccsccccscccsccccccccccccccscsscscssccccsscscsscsccccsssscccccsssscccccccccccsccccccccscsccsccccscccscccscccsccccccccccccscccccccccccccssccscccccsccsscsscccsscccccccssccsccscscccscsccccsscsscccccscssscccssscssccsscccscssscccssscscccccsccccsccccscsccccccccccccccccccccccccccccccccccccccccccssssccssssccscccccccccccscccsccccccscccsccscccscccsccscccscccc" />
    <path
       id="text4184"
       style="font-style:normal;font-variant:normal;font-weight:normal;font-stretch:normal;font-size:192px;font-family:Consolas;-inkscape-font-specification:Consolas;fill:#ffffff"
       d="m 494.72655,7.7810335 c -8.31249,0 -15.62501,0.875002 -21.9375,2.6249995 -6.3125,1.687499 -11.81251,4.093754 -16.5,7.218751 -4.625,3.062497 -8.50001,6.750004 -11.625,11.0625 -3.125,4.312496 -5.62501,9.062505 -7.5,14.25 -1.875,5.187495 -3.21875,10.718756 -4.03125,16.59375 -0.8125,5.874994 -1.21875,11.937506 -1.21875,18.1875 0,9.312487 0.90625,17.375007 2.71875,24.187496 1.8125,6.81249 4.46875,12.46875 7.96875,16.96875 1.64456,2.08507 3.48287,3.91169 5.5,5.5 -3.30626,-4.41397 -5.84002,-9.88651 -7.58399,-16.44141 -1.8125,-6.81249 -2.71875,-14.875009 -2.71875,-24.187496 0,-6.24999 0.40625,-12.312502 1.21875,-18.187496 0.8125,-5.874994 2.15625,-11.406255 4.03125,-16.59375 1.875,-5.187495 4.37501,-9.937505 7.5,-14.25 3.125,-4.312496 7.00001,-8.000003 11.625,-11.0625 4.6875,-3.124997 10.18751,-5.531252 16.5,-7.21875 6.3125,-1.749998 13.62501,-2.625 21.9375,-2.625 h 6.20899 V 7.7810335 Z m 12.09375,6.0273445 v 8.222656 h -13.125 c -7.3125,0 -13.65626,0.875002 -19.03125,2.625 -5.375,1.749998 -9.87501,4.218753 -13.5,7.40625 -3.625,3.187497 -6.40626,7.031255 -8.34375,11.53125 -1.9375,4.499995 -3.15625,9.531256 -3.65625,15.09375 l -0.375,3.84375 c 2.16529,-1.271681 4.51661,-2.396592 7.04101,-3.384766 0.65232,-3.401146 1.60666,-6.579566 2.875,-9.52539 1.9375,-4.499996 4.71876,-8.343753 8.34375,-11.53125 3.625,-3.187497 8.12501,-5.656252 13.5,-7.40625 5.375,-1.749998 11.71876,-2.625 19.03125,-2.625 h 13.125 v -14.25 z m -50.99024,45.33789 c -0.34415,1.794392 -0.60856,3.647232 -0.78125,5.56836 l -0.375,3.84375 c 3.9375,-2.312498 8.46876,-4.156252 13.59375,-5.53125 5.1875,-1.437499 10.78126,-2.15625 16.78125,-2.15625 6.1875,0 11.59376,0.906252 16.21875,2.71875 3.15295,1.219138 5.92991,2.77112 8.34766,4.640625 -0.80103,-1.081945 -1.66398,-2.111902 -2.60742,-3.074219 -3.0625,-3.249997 -6.93751,-5.781252 -11.625,-7.59375 -4.625,-1.812498 -10.03126,-2.71875 -16.21875,-2.71875 -6,0 -11.59376,0.718751 -16.78125,2.15625 -2.30668,0.618864 -4.48662,1.337707 -6.55274,2.146484 z m 53.78516,9.083985 c 1.85224,2.501799 3.33305,5.3156 4.42383,8.457031 1.5625,4.499995 2.34375,9.437507 2.34375,14.812497 0,5.62499 -1.03126,10.906249 -3.09375,15.843749 -2,4.9375 -4.87501,9.25 -8.625,12.9375 -3.75,3.625 -8.28126,6.5 -13.59375,8.625 -5.25,2.0625 -11.09376,3.09375 -17.53125,3.09375 -6.75,0 -12.71876,-1.0625 -17.90625,-3.1875 -2.75003,-1.15965 -5.25547,-2.64553 -7.53125,-4.4375 0.12993,0.17346 0.25242,0.35719 0.38476,0.52734 3.5,4.4375 7.84376,7.75001 13.03125,9.9375 5.1875,2.125 11.15626,3.1875 17.90625,3.1875 6.4375,0 12.28126,-1.03125 17.53125,-3.09375 5.3125,-2.12499 9.84376,-5 13.59375,-8.625 3.75,-3.68749 6.625,-8 8.625,-12.9375 2.0625,-4.93749 3.09375,-10.21875 3.09375,-15.843749 0,-5.37499 -0.78125,-10.3125 -2.34375,-14.812497 -1.5625,-4.499992 -3.90625,-8.343749 -7.03125,-11.531246 -1.00257,-1.063956 -2.10061,-2.043229 -3.27734,-2.953125 z M 582.1953,7.7810335 529.97655,88.874781 v 14.343749 h 5.88476 V 94.902121 L 588.08006,13.808378 H 605.6328 V 7.7810335 Z m 23.4375,6.0273445 v 75.066403 h 5.88476 V 13.808378 Z m 5.88476,75.066403 v 6.02734 h 15.02149 v -6.02734 z m 15.02149,6.02734 v 8.316409 H 605.6328 v 27.09375 h -10.80274 v 6.02734 h 16.6875 v -27.09375 h 20.90625 V 94.902121 Z m -31.70899,35.410159 v -21.06641 h -5.88476 v 21.06641 z m -5.88476,-21.06641 v -6.02734 h -53.08399 v 6.02734 z m 0,-85.714836 -42.65625,65.343747 h 9.82031 L 588.9453,38.574003 Z m 0,15.042969 v 50.300778 h -32.83594 l -3.93555,6.02734 h 42.65625 V 29.558378 Z m -113.25,29.488281 c -2.375,0 -4.78126,0.21875 -7.21875,0.65625 -2.4375,0.4375 -4.84376,1.062501 -7.21875,1.875 -2.3125,0.749999 -4.53126,1.625001 -6.65625,2.625 -2.125,0.999999 -4.0625,2.062501 -5.8125,3.1875 0,8.06249 0.5625,14.812507 1.6875,20.249997 1.125,5.374989 2.78125,9.687499 4.96875,12.937499 1.59631,2.30579 3.44915,4.13019 5.54883,5.49219 -2.0189,-3.18469 -3.56721,-7.31109 -4.63282,-12.40235 -1.125,-5.437489 -1.6875,-12.187499 -1.6875,-20.249996 1.75,-1.124995 3.6875,-2.187497 5.8125,-3.187496 2.125,-0.999999 4.34375,-1.875001 6.65625,-2.625 2.375,-0.812499 4.78125,-1.437501 7.21875,-1.875 2.4375,-0.4375 4.84375,-0.65625 7.21875,-0.65625 4.125,0 7.65626,0.593751 10.59375,1.78125 1.36282,0.511055 2.61035,1.130237 3.75391,1.847656 -0.64435,-1.093916 -1.38466,-2.09754 -2.23242,-3 -1.9375,-2.124998 -4.40626,-3.750001 -7.40625,-4.875 -2.9375,-1.187499 -6.46876,-1.78125 -10.59375,-1.78125 z m 20.23242,9.65625 c 0.82825,1.406138 1.49419,2.96502 1.98633,4.6875 0.9375,2.999997 1.40625,6.374997 1.40625,10.124997 0,4.125 -0.625,7.812499 -1.875,11.062499 -1.1875,3.1875 -2.87501,5.90625 -5.0625,8.15625 -2.125,2.25 -4.68751,3.96875 -7.6875,5.15625 -2.9375,1.125 -6.18751,1.6875 -9.75,1.6875 -4.25,0 -8.00001,-0.6875 -11.25,-2.0625 -0.94421,-0.39947 -1.84137,-0.88758 -2.70117,-1.44531 0.11251,0.17748 0.22046,0.36359 0.33593,0.53515 2.25,3.25 5.00001,5.56251 8.25,6.9375 3.25,1.375 7.00001,2.0625 11.25,2.0625 3.5625,0 6.81251,-0.5625 9.75,-1.6875 3,-1.1875 5.5625,-2.90625 7.6875,-5.15625 2.1875,-2.24999 3.875,-4.96875 5.0625,-8.15625 1.25,-3.24999 1.875,-6.9375 1.875,-11.062499 0,-3.74999 -0.46875,-7.125 -1.40625,-10.125 -0.875,-3.06249 -2.28125,-5.624997 -4.21875,-7.687493 -1.05734,-1.159671 -2.27856,-2.165492 -3.65234,-3.027344 z" />
    <path
       id="rect4217"
       style="fill:#ffffff"
       d="m 3.5976437,134.57986 v 7.58594 h 4.267578 v -4.74024 H 209.38084 v -2.8457 z m 205.7831963,2.8457 v 4.74024 H 7.8652217 v 2.8457 H 213.64842 v -7.58594 z" />
  </g>
</svg>
