
<svg  version="1.1" xmlns="http://www.w3.org/2000/svg" xmlns:xlink="http://www.w3.org/1999/xlink" x="0px" y="0px" viewBox="0 0 1000 1000" enable-background="new 0 0 1000 1000" xml:space="preserve">
    <rect fill="#5893D2" x="150" y="100" width="700" height="850"/>
    <path fill="#091423" d="M836.9,71.3H714.4V40.4c0-16.8-13.7-30.4-30.6-30.4c-16.9,0-30.6,13.6-30.6,30.4v30.8H530.6V40.4c0-16.8-13.7-30.4-30.6-30.4c-16.9,0-30.6,13.6-30.6,30.4v30.8H346.9V40.4c0-16.8-13.7-30.4-30.6-30.4s-30.6,13.6-30.6,30.4v30.8H163.1c-33.8,0-61.3,27.4-61.3,61.3v796.3c0,33.8,27.4,61.3,61.3,61.3h673.8c33.8,0,61.3-27.4,61.3-61.3V132.5C898.1,98.7,870.7,71.3,836.9,71.3z M836.9,928.8H163.1V132.5h122.5v30.8c0,16.8,13.7,30.4,30.6,30.4s30.6-13.6,30.6-30.4v-30.8h122.5v30.8c0,16.8,13.7,30.4,30.6,30.4c16.9,0,30.6-13.6,30.6-30.4v-30.8h122.5v30.8c0,16.8,13.7,30.4,30.6,30.4c16.9,0,30.6-13.6,30.6-30.4v-30.8h122.5V928.8z"/>
    <path fill="#091423" d="M683.8,438.8H316.3c-16.9,0-30.6,13.7-30.6,30.6c0,16.9,13.7,30.6,30.6,30.6h367.5c16.9,0,30.6-13.7,30.6-30.6C714.4,452.5,700.7,438.8,683.8,438.8z"/>
    <path fill="#091423" d="M683.8,561.3H316.3c-16.9,0-30.6,13.7-30.6,30.6c0,16.9,13.7,30.6,30.6,30.6h367.5c16.9,0,30.6-13.7,30.6-30.6C714.4,575,700.7,561.3,683.8,561.3z"/>
    <path fill="#091423" d="M683.8,683.8H316.3c-16.9,0-30.6,13.7-30.6,30.6c0,16.9,13.7,30.6,30.6,30.6h367.5c16.9,0,30.6-13.7,30.6-30.6C714.4,697.5,700.7,683.8,683.8,683.8z"/>
</svg>